Coordinates
version=1
nRows=8
nColumns=40
inDegrees=yes

Units are S.I. units (second, meters, Newtons, ...)
Angles are in degrees.

endheader
time	pelvis_tilt	pelvis_list	pelvis_rotation	pelvis_tx	pelvis_ty	pelvis_tz	hip_flexion_r	hip_adduction_r	hip_rotation_r	knee_angle_r	knee_angle_r_beta	ankle_angle_r	subtalar_angle_r	mtp_angle_r	hip_flexion_l	hip_adduction_l	hip_rotation_l	knee_angle_l	knee_angle_l_beta	ankle_angle_l	subtalar_angle_l	mtp_angle_l	lumbar_extension	lumbar_bending	lumbar_rotation	arm_flex_r	arm_add_r	arm_rot_r	elbow_flex_r	pro_sup_r	wrist_flex_r	wrist_dev_r	arm_flex_l	arm_add_l	arm_rot_l	elbow_flex_l	pro_sup_l	wrist_flex_l	wrist_dev_l
      3.40000000	      4.37401063	     -2.99103001	      2.40232812	      0.69806227	      0.90704922	      1.46770922	     -2.97535671	      5.03206296	    -17.93356047	    -18.62829270	     -0.32512504	     10.20385400	      5.83111297	     -4.63508004	     17.75762313	      4.38764197	      7.39523327	    -39.93132024	     -0.69693301	      5.45211126	      3.01646751	    -10.57985069	    -11.68296722	      4.43079633	      5.79005626	     15.73243346	    -13.51777915	     19.96959915	     18.96680487	     89.95437384	      0.00000000	      0.00000000	     -0.45701380	      8.06826741	    -10.88586872	     18.37705210	     89.95437384	      0.00000000	      0.00000000
      3.41000000	      4.00969212	     -3.31623182	      2.39410548	      0.70447471	      0.90593802	      1.46798506	     -3.04519950	      5.39252097	    -18.14103771	    -18.59997351	     -0.32463078	     10.33952529	      5.78852608	     -4.64084651	     18.66151896	      4.62040876	      7.70267440	    -37.93601044	     -0.66210829	      5.51471871	      2.84345162	    -10.46460356	    -11.23515894	      4.73249078	      5.86780119	     16.01898593	    -13.56096645	     19.94424503	     19.28164713	     89.95437384	      0.00000000	      0.00000000	     -0.83916987	      8.06380056	    -10.89804363	     18.43466429	     89.95437384	      0.00000000	      0.00000000
      3.42000000	      3.80215727	     -3.24779977	      2.25263046	      0.70998045	      0.90535465	      1.46802152	     -3.19603623	      5.32360664	    -17.72611411	    -18.66451815	     -0.32575729	     10.41784031	      5.94718058	     -4.71366844	     19.04826502	      4.20620047	      7.52640271	    -35.28539871	     -0.61584639	      4.82234968	      1.84264505	    -10.41485658	    -11.19042391	      4.58181981	      6.12213334	     16.32488635	    -13.70433607	     19.99048279	     19.81523694	     89.95437384	      0.00000000	      0.00000000	     -1.06643781	      8.04271711	    -10.80263196	     18.69638478	     89.95437384	      0.00000000	      0.00000000
      3.43000000	      4.05344555	     -3.17481242	      2.08811442	      0.71646581	      0.90540662	      1.46814770	     -4.00982424	      5.19675885	    -17.83208460	    -18.55404011	     -0.32382909	     10.56197860	      6.38235782	     -4.96630783	     18.80068126	      4.10294229	      8.24273357	    -32.61368145	     -0.56921612	      3.83320523	      0.63750640	    -10.59922924	    -11.53262130	      4.44212486	      6.35468146	     16.63072223	    -13.79075122	     20.21741615	     20.24180517	     89.95437384	      0.00000000	      0.00000000	     -1.27688462	      7.99398485	    -10.71421725	     18.71380816	     89.95437384	      0.00000000	      0.00000000
      3.44000000	      3.70571310	     -3.43858190	      2.03394504	      0.72240095	      0.90438841	      1.46830554	     -4.02276001	      5.47493501	    -17.72671006	    -18.59335896	     -0.32451533	     10.66305106	      6.49412012	     -5.04914455	     19.43861174	      4.18333884	      8.25771310	    -30.29339622	     -0.52871951	      3.03603059	      0.11404816	    -10.45979079	    -11.23886401	      4.65945198	      6.45918476	     16.87659996	    -13.84880447	     20.26749221	     20.67970082	     89.95437384	      0.00000000	      0.00000000	     -1.56497831	      7.95474769	    -10.68516994	     18.83356389	     89.95437384	      0.00000000	      0.00000000
      3.45000000	      3.64857247	     -3.46891300	      1.94134039	      0.72869785	      0.90386066	      1.46837677	     -4.43044778	      5.47520111	    -17.75659473	    -18.58657050	     -0.32439685	     10.91296003	      6.57976779	     -5.20071598	     19.55644897	      4.12188460	      8.73803209	    -27.79631183	     -0.48513716	      1.66219321	     -0.63705282	    -10.34214604	    -11.24927524	      4.61859616	      6.58893505	     17.10509144	    -13.87890560	     20.38074177	     21.09514431	     89.95437384	      0.00000000	      0.00000000	     -1.76967828	      7.89826132	    -10.61288797	     18.82988040	     89.95437384	      0.00000000	      0.00000000
      3.46000000	      3.61107618	     -3.56126656	      1.81119288	      0.73503071	      0.90333002	      1.46852102	     -4.86495894	      5.52977518	    -17.75849107	    -18.54809423	     -0.32372531	     10.83899714	      6.95474406	     -5.48683022	     19.65064434	      4.18953033	      9.41427171	    -25.45049395	     -0.44419492	      0.22247460	     -1.51845267	    -10.26608978	    -11.30366883	      4.64250284	      6.72844835	     17.31891034	    -13.90317025	     20.49191221	     21.52205608	     89.95437384	      0.00000000	      0.00000000	     -1.97192337	      7.85198433	    -10.53552447	     18.84482505	     89.95437384	      0.00000000	      0.00000000
      3.47000000	      3.30897022	     -3.67598243	      1.77242928	      0.74101372	      0.90229900	      1.46831282	     -4.91078953	      5.62455346	    -17.64803489	    -18.67639563	     -0.32596460	     10.95493016	      6.95532385	     -5.59040751	     20.09364959	      4.15691105	      9.76970731	    -23.27270659	     -0.40618536	     -1.27539733	     -1.78615070	     -9.97253442	    -11.07218439	      4.72253086	      6.77566139	     17.50996528	    -13.93031365	     20.53755177	     21.88967260	     89.95437384	      0.00000000	      0.00000000	     -2.15555791	      7.76756950	    -10.53469063	     18.84808643	     89.95437384	      0.00000000	      0.00000000
